<mxfile host="app.diagrams.net" agent="Mozilla/5.0 (X11; Linux x86_64; rv:133.0) Gecko/20100101 Firefox/133.0" version="25.0.3">
  <diagram name="Page-1" id="13e1069c-82ec-6db2-03f1-153e76fe0fe0">
    <mxGraphModel dx="2234" dy="559" grid="1" gridSize="10" guides="1" tooltips="1" connect="1" arrows="1" fold="1" page="1" pageScale="1" pageWidth="1100" pageHeight="850" background="none" math="0" shadow="0">
      <root>
        <mxCell id="0" />
        <mxCell id="1" parent="0" />
        <mxCell id="ln-Szk9AGflIyGVg6pl5-1" value="&lt;div&gt;User&lt;/div&gt;" style="shape=umlActor;verticalLabelPosition=bottom;verticalAlign=top;html=1;outlineConnect=0;" parent="1" vertex="1">
          <mxGeometry x="40" y="20" width="30" height="60" as="geometry" />
        </mxCell>
        <mxCell id="ln-Szk9AGflIyGVg6pl5-2" value="&lt;div&gt;Students &amp;amp; Companies&lt;/div&gt;" style="rounded=1;whiteSpace=wrap;html=1;" parent="1" vertex="1">
          <mxGeometry x="200" y="20" width="120" height="80" as="geometry" />
        </mxCell>
        <mxCell id="ln-Szk9AGflIyGVg6pl5-4" value="AWS Database" style="rounded=1;whiteSpace=wrap;html=1;" parent="1" vertex="1">
          <mxGeometry x="600" y="20" width="120" height="80" as="geometry" />
        </mxCell>
        <mxCell id="ln-Szk9AGflIyGVg6pl5-5" value="" style="endArrow=none;dashed=1;html=1;rounded=0;" parent="1" edge="1">
          <mxGeometry width="50" height="50" relative="1" as="geometry">
            <mxPoint x="60" y="540" as="sourcePoint" />
            <mxPoint x="60" y="100" as="targetPoint" />
          </mxGeometry>
        </mxCell>
        <mxCell id="ln-Szk9AGflIyGVg6pl5-8" value="" style="endArrow=none;dashed=1;html=1;rounded=0;entryX=0.5;entryY=1;entryDx=0;entryDy=0;" parent="1" target="ln-Szk9AGflIyGVg6pl5-4" edge="1">
          <mxGeometry width="50" height="50" relative="1" as="geometry">
            <mxPoint x="660" y="550" as="sourcePoint" />
            <mxPoint x="659" y="210" as="targetPoint" />
          </mxGeometry>
        </mxCell>
        <mxCell id="ln-Szk9AGflIyGVg6pl5-10" value="" style="endArrow=none;dashed=1;html=1;rounded=0;entryX=0.5;entryY=1;entryDx=0;entryDy=0;" parent="1" target="ln-Szk9AGflIyGVg6pl5-2" edge="1">
          <mxGeometry width="50" height="50" relative="1" as="geometry">
            <mxPoint x="260" y="540" as="sourcePoint" />
            <mxPoint x="260" y="250" as="targetPoint" />
          </mxGeometry>
        </mxCell>
        <mxCell id="ln-Szk9AGflIyGVg6pl5-18" value="" style="endArrow=classic;html=1;rounded=0;entryX=0;entryY=0;entryDx=0;entryDy=0;" parent="1" target="ln-Szk9AGflIyGVg6pl5-20" edge="1">
          <mxGeometry width="50" height="50" relative="1" as="geometry">
            <mxPoint x="60" y="140" as="sourcePoint" />
            <mxPoint x="210" y="160" as="targetPoint" />
          </mxGeometry>
        </mxCell>
        <mxCell id="ln-Szk9AGflIyGVg6pl5-19" value="Select Candidate" style="text;html=1;align=center;verticalAlign=middle;whiteSpace=wrap;rounded=0;" parent="1" vertex="1">
          <mxGeometry x="103.13" y="110" width="110" height="30" as="geometry" />
        </mxCell>
        <mxCell id="ln-Szk9AGflIyGVg6pl5-20" value="" style="rounded=0;whiteSpace=wrap;html=1;" parent="1" vertex="1">
          <mxGeometry x="250" y="140" width="20" height="340" as="geometry" />
        </mxCell>
        <mxCell id="ln-Szk9AGflIyGVg6pl5-54" value="" style="rounded=0;whiteSpace=wrap;html=1;" parent="1" vertex="1">
          <mxGeometry x="648.75" y="160" width="20" height="300" as="geometry" />
        </mxCell>
        <mxCell id="AzrbvuX2ZgRUmVUoGmSy-5" value="" style="endArrow=classic;html=1;rounded=0;entryX=0;entryY=0;entryDx=0;entryDy=0;" parent="1" edge="1">
          <mxGeometry width="50" height="50" relative="1" as="geometry">
            <mxPoint x="268.75" y="160" as="sourcePoint" />
            <mxPoint x="648.75" y="160" as="targetPoint" />
          </mxGeometry>
        </mxCell>
        <mxCell id="AzrbvuX2ZgRUmVUoGmSy-7" value="" style="endArrow=block;dashed=1;endFill=0;endSize=12;html=1;rounded=0;" parent="1" edge="1">
          <mxGeometry width="160" relative="1" as="geometry">
            <mxPoint x="650" y="270.40999999999997" as="sourcePoint" />
            <mxPoint x="270" y="270" as="targetPoint" />
          </mxGeometry>
        </mxCell>
        <mxCell id="sn7gj-G19lsIhyRGJPzt-11" value="" style="endArrow=block;dashed=1;endFill=0;endSize=12;html=1;rounded=0;" edge="1" parent="1">
          <mxGeometry width="160" relative="1" as="geometry">
            <mxPoint x="250.93" y="210" as="sourcePoint" />
            <mxPoint x="59.06" y="210" as="targetPoint" />
          </mxGeometry>
        </mxCell>
        <mxCell id="sn7gj-G19lsIhyRGJPzt-17" value="Request Candidate Profile" style="text;html=1;align=center;verticalAlign=middle;whiteSpace=wrap;rounded=0;" vertex="1" parent="1">
          <mxGeometry x="265" y="130" width="175" height="30" as="geometry" />
        </mxCell>
        <mxCell id="sn7gj-G19lsIhyRGJPzt-18" value="Return Profile Data" style="text;html=1;align=center;verticalAlign=middle;whiteSpace=wrap;rounded=0;" vertex="1" parent="1">
          <mxGeometry x="280" y="240" width="120" height="30" as="geometry" />
        </mxCell>
        <mxCell id="sn7gj-G19lsIhyRGJPzt-19" value="ALT" style="shape=umlFrame;whiteSpace=wrap;html=1;pointerEvents=0;" vertex="1" parent="1">
          <mxGeometry x="-65" y="170" width="755" height="70" as="geometry" />
        </mxCell>
        <mxCell id="sn7gj-G19lsIhyRGJPzt-20" value="" style="endArrow=block;dashed=1;endFill=0;endSize=12;html=1;rounded=0;" edge="1" parent="1">
          <mxGeometry width="160" relative="1" as="geometry">
            <mxPoint x="650" y="200.40999999999997" as="sourcePoint" />
            <mxPoint x="270" y="200" as="targetPoint" />
          </mxGeometry>
        </mxCell>
        <mxCell id="sn7gj-G19lsIhyRGJPzt-21" value="Server Error" style="text;html=1;align=center;verticalAlign=middle;whiteSpace=wrap;rounded=0;" vertex="1" parent="1">
          <mxGeometry x="270" y="170" width="100" height="30" as="geometry" />
        </mxCell>
        <mxCell id="sn7gj-G19lsIhyRGJPzt-24" value="Error Message" style="text;html=1;align=center;verticalAlign=middle;whiteSpace=wrap;rounded=0;" vertex="1" parent="1">
          <mxGeometry x="108.13" y="175" width="100" height="30" as="geometry" />
        </mxCell>
        <mxCell id="sn7gj-G19lsIhyRGJPzt-25" value="IF NOT" style="shape=umlFrame;whiteSpace=wrap;html=1;pointerEvents=0;" vertex="1" parent="1">
          <mxGeometry x="-65" y="240" width="755" height="270" as="geometry" />
        </mxCell>
        <mxCell id="sn7gj-G19lsIhyRGJPzt-26" value="" style="endArrow=block;dashed=1;endFill=0;endSize=12;html=1;rounded=0;" edge="1" parent="1">
          <mxGeometry width="160" relative="1" as="geometry">
            <mxPoint x="250" y="289.28999999999996" as="sourcePoint" />
            <mxPoint x="58.13" y="289.28999999999996" as="targetPoint" />
          </mxGeometry>
        </mxCell>
        <mxCell id="sn7gj-G19lsIhyRGJPzt-27" value="Load Profile" style="text;html=1;align=center;verticalAlign=middle;whiteSpace=wrap;rounded=0;" vertex="1" parent="1">
          <mxGeometry x="115" y="260" width="100" height="30" as="geometry" />
        </mxCell>
        <mxCell id="sn7gj-G19lsIhyRGJPzt-29" value="" style="endArrow=classic;html=1;rounded=0;entryX=0;entryY=0;entryDx=0;entryDy=0;" edge="1" parent="1">
          <mxGeometry width="50" height="50" relative="1" as="geometry">
            <mxPoint x="60" y="320" as="sourcePoint" />
            <mxPoint x="250" y="320" as="targetPoint" />
          </mxGeometry>
        </mxCell>
        <mxCell id="sn7gj-G19lsIhyRGJPzt-30" value="Send Invitation" style="text;html=1;align=center;verticalAlign=middle;whiteSpace=wrap;rounded=0;" vertex="1" parent="1">
          <mxGeometry x="60" y="290" width="180" height="30" as="geometry" />
        </mxCell>
        <mxCell id="sn7gj-G19lsIhyRGJPzt-31" value="" style="endArrow=classic;html=1;rounded=0;entryX=0;entryY=0;entryDx=0;entryDy=0;" edge="1" parent="1">
          <mxGeometry width="50" height="50" relative="1" as="geometry">
            <mxPoint x="268.75" y="340" as="sourcePoint" />
            <mxPoint x="648.75" y="340" as="targetPoint" />
          </mxGeometry>
        </mxCell>
        <mxCell id="sn7gj-G19lsIhyRGJPzt-32" value="Update Active Invitations" style="text;html=1;align=center;verticalAlign=middle;whiteSpace=wrap;rounded=0;" vertex="1" parent="1">
          <mxGeometry x="275" y="310" width="155" height="30" as="geometry" />
        </mxCell>
        <mxCell id="sn7gj-G19lsIhyRGJPzt-33" value="" style="endArrow=block;dashed=1;endFill=0;endSize=12;html=1;rounded=0;" edge="1" parent="1">
          <mxGeometry width="160" relative="1" as="geometry">
            <mxPoint x="249.68" y="404.28999999999996" as="sourcePoint" />
            <mxPoint x="57.81" y="404.28999999999996" as="targetPoint" />
          </mxGeometry>
        </mxCell>
        <mxCell id="sn7gj-G19lsIhyRGJPzt-34" value="" style="endArrow=block;dashed=1;endFill=0;endSize=12;html=1;rounded=0;" edge="1" parent="1">
          <mxGeometry width="160" relative="1" as="geometry">
            <mxPoint x="648.75" y="394.69999999999993" as="sourcePoint" />
            <mxPoint x="268.75" y="394.28999999999996" as="targetPoint" />
          </mxGeometry>
        </mxCell>
        <mxCell id="sn7gj-G19lsIhyRGJPzt-35" value="Server Error" style="text;html=1;align=center;verticalAlign=middle;whiteSpace=wrap;rounded=0;" vertex="1" parent="1">
          <mxGeometry x="268.75" y="364.28999999999996" width="100" height="30" as="geometry" />
        </mxCell>
        <mxCell id="sn7gj-G19lsIhyRGJPzt-36" value="Error Message" style="text;html=1;align=center;verticalAlign=middle;whiteSpace=wrap;rounded=0;" vertex="1" parent="1">
          <mxGeometry x="106.88" y="369.28999999999996" width="100" height="30" as="geometry" />
        </mxCell>
        <mxCell id="sn7gj-G19lsIhyRGJPzt-37" value="ALT" style="shape=umlFrame;whiteSpace=wrap;html=1;pointerEvents=0;" vertex="1" parent="1">
          <mxGeometry x="-58.75" y="350" width="738.75" height="70" as="geometry" />
        </mxCell>
        <mxCell id="sn7gj-G19lsIhyRGJPzt-38" value="IF NOT" style="shape=umlFrame;whiteSpace=wrap;html=1;pointerEvents=0;" vertex="1" parent="1">
          <mxGeometry x="-58.75" y="420" width="738.75" height="80" as="geometry" />
        </mxCell>
        <mxCell id="sn7gj-G19lsIhyRGJPzt-39" value="" style="endArrow=block;dashed=1;endFill=0;endSize=12;html=1;rounded=0;" edge="1" parent="1">
          <mxGeometry width="160" relative="1" as="geometry">
            <mxPoint x="648.75" y="460.40999999999997" as="sourcePoint" />
            <mxPoint x="268.75" y="460" as="targetPoint" />
          </mxGeometry>
        </mxCell>
        <mxCell id="sn7gj-G19lsIhyRGJPzt-40" value="Confirmation" style="text;html=1;align=center;verticalAlign=middle;whiteSpace=wrap;rounded=0;" vertex="1" parent="1">
          <mxGeometry x="278.75" y="430" width="100" height="30" as="geometry" />
        </mxCell>
        <mxCell id="sn7gj-G19lsIhyRGJPzt-41" value="" style="endArrow=block;dashed=1;endFill=0;endSize=12;html=1;rounded=0;" edge="1" parent="1">
          <mxGeometry width="160" relative="1" as="geometry">
            <mxPoint x="248.75" y="479.28999999999996" as="sourcePoint" />
            <mxPoint x="56.879999999999995" y="479.28999999999996" as="targetPoint" />
          </mxGeometry>
        </mxCell>
        <mxCell id="sn7gj-G19lsIhyRGJPzt-42" value="Confirmation" style="text;html=1;align=center;verticalAlign=middle;whiteSpace=wrap;rounded=0;" vertex="1" parent="1">
          <mxGeometry x="113.75" y="450" width="100" height="30" as="geometry" />
        </mxCell>
      </root>
    </mxGraphModel>
  </diagram>
</mxfile>
